<svg xmlns="http://www.w3.org/2000/svg" height="2000" width="2000" viewBox="0 0 2000 2000"><defs><style>.cls-1{fill:#fff}</style></defs><path d="M0 0h2000v2000H0z" class="cls-1"/><path d="M1788.94 1864.79c-19.91-39.32-18.33-85.37-40.18-125.38-40-73.12-90.27-129.65-176.57-146.79-14.82-2.94-36.63-19.12-38.34-31.51-8.65-62.88-60.37-74.42-105-91.54-31.41-12-32.72-24.22-24.88-55.23 24.91-98.51 44.69-198.36 64.37-298.11 3.44-17.48-3.2-37-5.49-58.32-30.28 30.23-83.6 27.48-82.15-.8s22.18-55.21 7.31-88.09c-32.21 9.38-37.39 64.11-86.44 39.3-97.51-49.34-98.8-46.77-101.6-89.87-28.62 13.83-42.57 33-36.11 62.92 5.88 27.23 27.22 32.84 52.3 35.85 86.07 10.31 116.25 44 99.1 106.34-4.71 17.12-14.47 25.68-31.57 28.87-14.45 2.69-28.18 2.28-36.07-10.7-10.66-17.53 9.28-23.08 16.94-31.43 23.16-25.25 1.28-41-8.94-60.45-11.71-22.29-26.59-22.63-47.82-14.33-33.76 13.2-67.53 23.09-105.93 20.57-36.35-2.39-91.42 68.47-89 106.68 1.78 27.89 21 24.5 37.39 16.65 111.82-53.58 214.87-14 317.76 28.55 11.75 4.85 22.69 15.75 12 26-23.24 22.24-35.1 42.62-14.23 73.44 7 10.31-10.32 20.58-14.9 16.42-18.6-16.88-50.86 24.29-62.38-16.51-8.19-29-22.1-54.79-51.84-68.18-8.72 13.68-1.92 21.6 2.45 29.88 33.75 63.79 33.76 63.78-36.69 74.45-52.2 7.91-125.17-32-146.78-81.34-12.49-28.53-28.88-45.15-64.29-44-30.23 1-50-17.22-57.76-51-14.52-63.16-57.17-110.62-91.12-163.87-34.38-53.9-99.43-115.93-56.56-205.28 4.53 14 8.74 27.22 12.83 40 .73 2.28 1.45 4.55 2.18 6.8 5.79 18.07 11.4 35.25 17.37 52.3 4.5 12.88 12.21 26.49 28.07 24.75 17.79-1.94 15.88-18.72 17.86-31.65 2.25-14.72 1.49-29.07-.61-43.26-4.73-31.73-16.21-62.66-16-95.24.41-57.34-25.94-111.52-26.19-169.15a170.38 170.38 0 0 1 1.57-24.18c3.68-27.15 4.74-53.48-24-71.35-13.93-8.66-20.81-29.32-13.33-41.25 32.65-52 10.74-113.89 33.91-167.3 17.72-40.84 137.75-120.14 189.11-116 125.24 10 244.88 46.78 361.09 91.73 33 12.77 57.16 48.47 85.21 74-14.32-161.1-84.27-224-246.8-239.87-93.87-9.2-187.8-8-281.53-15.43-109-8.7-229.26 84.47-286.4 206.17-43.16 91.91-44.57 189.6-56.13 286.56-3.78 31.67 18.75 39.12 37.43 51 69.77 44.24 107.53 147.74 84.6 224.69-35.11 117.9-25.72 230.13 50.84 331.27 8.91 11.79 10.43 22.87 6.59 33.06-84.7-29.14-107.83-92.35-95.7-174.72 4.57-31-1.38-50.11-41.49-48.73-40.3 1.39-57-30.12-70.41-65.13-22.2-58 1.2-156.61-34.6-193.81l5 205.63s57.61 101.85 102.88 89.5c28.8-17.49 59.33 132.33 13.37 173.87-33.22 30-36.61 25-36.9 24.33.09.89.46 9.43-16.66 38.42-4.53 7.67-109.08-22.77-90.47-5.14 7.78 7.36-13 30.39-16.77 39.88-14.15 35.87-29 68.27-66.5 89.92-74 42.7-140.63 97.31-216.51 135.3 5.46 16.8 16.05 19.61 24.43 15 29.91-16.61 52.14-3.32 59.55 22.71 10.55 37.09-32 32.77-45.24 33.77-24.93 1.88-66.69 22.94-72.51-30.09-2.41-22-16-10.16-23.91-4.78-20.44 13.9-39.83 29.34-66.55 49.34 47.23 13 85.45 31.68 129.82 26.67 10.5-1.19 24.58-5.94 29.56 8.74 4.72 13.9-8.87 19.89-16.85 27.09-32.69 29.49-119.1 33.16-167.36 2.74-16.85-10.62-32.79-11.56-49.73-13.35V2000H307.5q-8.78-10-18.48-19.57c-54-53.1-87.45-125.28-139.08-182.75-13.6-15.13-30.34-40.83-13.55-62.25 14.41-18.39 38.62-10.19 59.37-4.07 74 21.86 122.1 79.2 153.44 140.57 23.62 46.25 54.35 87.25 85.08 128.07h1040.89c-3.59-12.67 4.25-29.9 9.53-45.86-1.59-14.39 8.41-18.39 18-22.8h.1l1.38-.65c.75-.35 1.49-.71 2.22-1.09s1.28-.67 1.89-1a26.34 26.34 0 0 0 5.18-3.69c.18-.17.36-.34.53-.52a3.07 3.07 0 0 0 .25-.26c.18-.19.36-.38.53-.58a15.16 15.16 0 0 0 3.32-6.53c23.49-21.92 49.67-52.21 25.21-78.37-20.86-22.31-45.12-59.85-96.22-43.61 22.81-42.53 23.24-81-8.93-116.46C1547.23 1774.66 1617 1904.07 1725 2000h13q-12.32-16.74-24.66-33.45c-12.13-16.39-4.67-30.67 8.2-40 19.49-14.16 27.32 3.79 33.82 17.3 8.74 18.14 15.12 37 20.24 56.17h71.62a1227.54 1227.54 0 0 0-58.28-135.23zM381.86 1503.34c-20.69-9.19-35.64-25-36.76-42-1-15 22.19-23.87 34.9-20.41 16.93 4.6 20.66 24.66 21.53 41.53.71 13.91-9.38 18.66-19.67 20.88zm768.14 38.08c-3.56 15.46 4.71 38.35-21.22 40.32-23.53 1.79-34.11 11.35-20.48 32.17 35.4 54-15 92.82-23.18 138.91-2.13 12-18.25 16.17-29.21 12.3-51.33-18.16-110.63-24.66-135.68-84.7-10.42-25-19.7-37.58-48.23-15-31.68 25.08-70.36 4.15-89.27-15.45-44.65-46.28-130.13-31-153.1-105.61-.65-2.13-6.79-2.52-10.33-3.83-66.66-24.63-66.66-24.63-17.8-74.33 67.45-68.62 64.07-64.35 145.59 0 34.94 27.58 88.26 30.68 119.28 70.83 5.72 7.4 19.11.76 25.12-6.79 7.47-9.39 2.2-18.22-6.68-23.9-9.47-6.06-21.3-9.24-29.21-16.73-17-16.07-13.27-37.73-11.66-58.32 23.92 30.86 46.53-57.37 70.85-.77 3.65 8.49 5.42 13.77 19.92 10.73 42.27-8.85 39.86 35.57 58.8 55.07-24.52 12.45-20.54 63.83-67 50.49l59.23 32.94c31.28-102.61 26.7-98.86 139.26-68.24 16.32 4.49 29.92 8.62 25 29.91zm107.5 322.78c-.6 27.85-20.8 35.46-41.61 35.49-20.26 0-37.37-13-35.09-36 3-30 31.76-26.88 53.21-35.25 21.14 2.09 23.9 17.26 23.49 35.76zm-34.61-133.4c-15.6-44.52 10.14-181 39.21-208 25 62.32 7.77 153.69-39.21 208zM1456 329.33l.09-.15c-.34-.31-.69-.62-1-1 .07.76.13 1.52.2 2.29z"/><path d="M1516.55 1913.45c11.71-7.7 28.41-15.21 31.91 2.88 5.41 28.05-18.91 44.25-38.75 56.85-23.49 14.91-17.87-14.12-26.46-22.43-2.79-24.94 28.96-18.83 33.3-37.3zM1507.85 764.73c-42.85-47.37-67.14-53.8-154.52-42.66 61.28 20.38 129.49 20.64 135.64 97.86-39.69 25.75-21.84-62.8-69-30.27-21.31 14.69-67.85-8.45-64.49 48.61-8.52-53.89-59.2-109.93-12.38-150.75 33.71-29.38 94.81-16.75 141.87-1 32.97 11 26.69 41.15 22.88 78.21zM1506.83 622.66c-35.93-94.19-45-193.41-50.88-293.34l-.73 1.18zM1209.22 712.19c-11.38 5.87-8 18-11.56 27.22l1.46-1.34c-26.75 19.08-26.75 19.08-52.18 73-23.34-28.08 4.48-70.25-31.48-93.07-16 6.76-13.79 33.27-33.7 38.88-26.85 7.56-39-9.06-48.15-29-11.57-25.14 11.19-30.35 25.46-34.78 52.52-16.32 101.08 6.55 150.58 18.94z"/><path d="M1209.65 712.13c-39.71-46.38-93.53-53.17-149.81-54.24-11.89-.22-30.85 3.28-29.07-17 1.22-13.9 17.13-12.22 28.15-13.46 34.36-3.87 68.51-3.33 102.5 4.13 63.31 13.91 69.92 24.84 47.62 80.61.18.02.61-.04.61-.04zM568 720.16c-2.05-35.51 13.62-63.66-10.78-90.25 36.89 9.22 44.2 42.1 63.7 71.79-29.66-28-42.2-12.2-52.92 18.46zM179.68 1788.34c93.43 24 129.68 102.23 173.39 173.36 4.7 7.65 4.13 15.5-2.88 19.94-7.62 4.83-15.1.59-18-7.46-28.8-80.01-80.57-141.02-152.51-185.84z"/><path fill="#a50000" d="M1614.35 872.42l-815.56-27.83V580.11l815.56 82.73v209.58z"/><path d="M989.73 693.28l-47.83-3.65v-12.11q0-8.47-1.86-10.95t-6.22-2.84q-4.73-.39-7.16 2.55t-2.44 9.34q0 8.22 2.74 12.58t14.8 11.13c23.08 12.86 37.47 23 43.38 30.52S994 749 994 764.77q0 17.24-4.89 25.14t-19 12.81q-14.19 4.92-33.25 4.06-21.07-1-36.19-8.17T880.7 781q-4.74-10.4-4.74-29.1V741l49.51 3v20q0 9.22 2.06 12t7.29 3c3.48.18 6.06-.79 7.76-2.92s2.54-5.38 2.54-9.75q0-14.41-4.84-19.15c-3.28-3.18-11.48-8.65-24.58-16.46s-22-13.66-26.32-17.16a40.67 40.67 0 0 1-10.79-14.09q-4.29-8.84-4.3-22.09 0-19.11 6.09-27.42t19.55-12.05q13.4-3.75 32.15-2 20.35 1.85 34.5 8.43t18.62 15q4.53 8.41 4.53 27.65zM1013 646.53l49.9 4.46c13.27 1.19 23.4 3 30.46 5.34s12.29 5.34 15.8 8.93a27.49 27.49 0 0 1 7.12 12.51q1.86 7.13 1.86 21.75v13.57q0 14.92-3.61 21.51t-13.31 9.63q-9.73 3.06-25.59 2l-13.08-.83v63.7l-49.55-2.24zm49.55 31.5v40.26c1.39.16 2.59.28 3.6.35q6.7.48 9.31-2.12t2.59-11.34v-12.94q0-8.07-3-10.75t-12.52-3.49zM1238.93 754.9q0 22.7-1.21 32.07a31.87 31.87 0 0 1-7.6 16.88q-6.4 7.53-17.38 11.22t-25.82 3a77.63 77.63 0 0 1-25.5-5.2 45.14 45.14 0 0 1-18.4-13 36 36 0 0 1-8.35-18.14q-1.34-9.65-1.34-33.61v-26.53q0-23.39 1.29-33a31.16 31.16 0 0 1 8-17.08q6.72-7.46 18.08-10.72t26.21-1.91a77.86 77.86 0 0 1 25.12 6.25 45.79 45.79 0 0 1 17.71 13.47 36.71 36.71 0 0 1 7.91 17.89q1.26 9.4 1.27 32.65zm-44.88-53q0-10.63-1.34-13.72c-.91-2.06-2.76-3.2-5.58-3.43a6.07 6.07 0 0 0-5.48 2q-1.9 2.26-1.9 14.08v71.47q0 13.34 1.25 16.52t5.81 3.43q4.65.24 6-3.27t1.29-17zM1301.41 672.32V820.2l-43.27-2V668.45zM1362.87 677.82V794l24.87 1.37v28.84l-66.59-3.08v-147zM1400.1 681.15L1466 687v28.18l-26-2.11V740l24.4 1.77v26.8L1440 767v31.2l28.63 1.57v28.15l-68.45-3.16zM1482.05 688.47l26.91 2.41c17.7 1.58 29.57 3.29 35.74 5.15a27.28 27.28 0 0 1 15 11.25q5.76 8.46 5.76 25.91 0 15.93-4.07 21.12c-2.72 3.47-8.08 5.3-16.12 5.48q10.92 3.38 14.64 8a22.5 22.5 0 0 1 4.64 8.36q.9 3.72.91 20.25v36l-34.17-1.58V785q0-11.09-1.81-13.84t-9.54-3.27v62.43l-37.89-1.75zm37.89 27.08v30.78q6.32.46 8.83-1t2.52-10.6v-7.58c0-4.37-.81-7.31-2.43-8.8s-4.6-2.45-8.92-2.8z" class="cls-1"/></svg>