<?xml version="1.0" encoding="UTF-8"?>
<svg version="1.1" viewBox="0 0 1920 1920" xmlns="http://www.w3.org/2000/svg">
 <g fill="#fff" stroke-width="0">
  <rect width="1920" height="200"/>
  <rect y="1720" width="1920" height="200"/>
  <rect width="100" height="1920"/>
  <rect x="1820" width="100" height="1920"/>
 </g>
 <rect x="100" y="200" width="1720" height="1520" fill-opacity=".75" stroke="#000" stroke-miterlimit="8" stroke-width="8" style="paint-order:normal"/>
 <g transform="translate(-90,-86)" fill="#fff" stroke="#000" stroke-miterlimit="16" stroke-width="16" style="paint-order:stroke fill markers;shape-inside:url(#rect15668);white-space:pre" aria-label="WILLBOARD">
  <path d="m547.84 1098.5-11.133-104h19.043l6.3721 86.792h2.0508l7.7637-60.425h17.139l-6.1524 19.995h-2.9297l-5.8594 57.642zm38.892 0-5.8594-57.642h-2.9297l-6.0059-19.995h17.139l7.6172 60.425h2.0508l6.3721-86.792h19.043l-11.133 104z" style="paint-order:stroke fill markers"/>
  <path d="m688.59 1098.5v-104h19.336v104zm-23.145 0v-17.432h65.771v17.432zm0-86.646v-17.358h65.771v17.358z" style="paint-order:stroke fill markers"/>
  <path d="m782.75 1098.5v-104h19.336v104zm0 0v-17.798h71.338v17.798z" style="paint-order:stroke fill markers"/>
  <path d="m900.64 1098.5v-104h19.336v104zm0 0v-17.798h71.338v17.798z" style="paint-order:stroke fill markers"/>
  <path d="m1036.8 1098.5v-17.798h18.53q7.9102 0 12.305-3.7353 4.3946-3.7354 4.3946-10.474 0-6.6651-4.6143-10.327t-13.11-3.6621h-17.212l-1.7578-7.7637h28.711q13.55 0 20.874 6.5918 7.3974 6.5918 7.3974 18.604 0 13.623-8.5693 21.094-8.4961 7.4707-24.17 7.4707zm-18.311 0v-104h19.336v104zm13.33-51.123v-7.1778h28.857v7.1778zm4.9805-4.9805v-7.7637h14.136q6.8115 0 10.254-2.9297 3.5156-3.0029 3.5156-8.789 0-5.2735-3.7353-7.9102-3.6621-2.71-11.06-2.71h-12.817l-1.7578-17.798h15.308q16.406 0 25.342 6.7383 9.0088 6.665 9.0088 19.043 0 10.62-6.958 16.406-6.958 5.7129-19.702 5.7129z" style="paint-order:stroke fill markers"/>
  <path d="m1169.9 1100q-39.624 0-39.624-52.734 0-54.199 39.624-54.199t39.624 54.199q0 52.734-39.624 52.734zm0-18.457q19.336 0 19.336-34.277 0-35.816-19.336-35.816-19.336 0-19.336 35.816 0 34.277 19.336 34.277z" style="paint-order:stroke fill markers"/>
  <path d="m1245.9 1098.5 30.029-104h23.73l30.029 104h-20.874l-20.361-78.589h-1.3183l-20.361 78.589zm15.161-19.702v-17.871h52.734v17.871z" style="paint-order:stroke fill markers"/>
  <path d="m1389 1060.4v-17.798h18.677q6.7382 0 10.474-3.9551 3.7353-4.0283 3.7353-11.206 0-7.251-3.7353-11.206-3.7354-3.9551-10.474-3.9551h-18.384l-1.7578-17.798h20.142q16.772 0 25.928 8.2031 9.1553 8.2031 9.1553 23.291 0 16.333-9.1553 25.415-9.1553 9.0088-25.928 9.0088zm-18.31 38.086v-104h19.336v104zm52.808 0-19.629-48.926h20.361l22.339 48.926z" style="paint-order:stroke fill markers"/>
  <path d="m1506.9 1098.5v-18.53h8.1299q14.282 0 21.387-8.1299 7.1778-8.2031 7.1778-23.877 0-17.285-7.1778-26.148-7.1045-8.8623-21.387-8.8623h-7.8369l-1.7578-18.457h9.5947q48.852 0 48.852 53.467 0 50.537-48.852 50.537zm-18.31 0v-104h19.336v104z" style="paint-order:stroke fill markers"/>
 </g>
</svg>
